<?xml version="1.0" standalone="no"?><!DOCTYPE svg PUBLIC "-//W3C//DTD SVG 1.1//EN" "http://www.w3.org/Graphics/SVG/1.1/DTD/svg11.dtd" ><svg xmlns="http://www.w3.org/2000/svg"><metadata></metadata><defs><font id="fonteditor" horiz-adv-x="1000"><font-face font-family="zÙw_ëNPOS2016Oî¢rH" font-weight="400" font-stretch="normal" units-per-em="1000" panose-1="2 1 6 0 3 1 1 1 1 1" ascent="859" descent="-141" x-height="1" bbox="47 -103 953 813" underline-thickness="46" underline-position="-85" unicode-range="U+4e0d-ff0c" /><missing-glyph horiz-adv-x="1000"  /><glyph glyph-name="uni4E0D" unicode="&#x4e0d;" d="M115 739 L890 758 L892 664 L635 658 L477 495 L568 489 L563 413 L917 281 L885 194 L557 314 L535 -37 L441 -31 L475 492 L150 155 L82 220 L500 654 L117 645 L115 739 Z" /><glyph glyph-name="uni4E5F" unicode="&#x4e5f;" d="M483 512 L315 487 L284 83 L784 58 L812 164 L904 140 L865 -3 L817 -38 L230 -8 L186 43 L219 473 L110 457 L96 549 L227 568 L240 740 L334 733 L322 582 L478 605 L470 752 L564 758 L571 619 L834 658 L887 607 L857 318 L824 277 L709 245 L684 335 L767 359 L787 557 L576 526 L595 200 L501 195 L483 512 Z" /><glyph glyph-name="uni4E86" unicode="&#x4e86;" d="M307 52 L543 75 L493 396 L505 435 L703 660 L157 666 L158 760 L807 752 L842 675 L590 388 L643 40 L602 -15 L316 -40 L307 52 Z" /><glyph glyph-name="uni4F1A" unicode="&#x4f1a;" d="M436 220 L313 52 L681 120 L655 160 L734 212 L863 13 L784 -38 L737 34 L214 -63 L167 12 L311 210 L120 194 L113 288 L793 344 L800 250 L436 220 ZM894 428 L433 627 L128 378 L69 450 L473 783 L533 709 L516 695 L932 514 L894 428 ZM288 377 L283 472 L665 494 L670 399 L288 377 Z" /><glyph glyph-name="uni4F5C" unicode="&#x4f5c;" d="M603 342 L592 173 L916 204 L925 111 L586 78 L585 81 L576 -59 L481 -53 L523 542 L425 427 L352 487 L600 778 L671 717 L638 679 L919 666 L915 572 L620 585 L610 436 L891 433 L889 338 L603 342 ZM76 513 L322 763 L390 697 L311 617 L346 -52 L251 -57 L221 527 L142 447 L76 513 Z" /><glyph glyph-name="uni4F60" unicode="&#x4f60;" d="M68 481 L278 765 L354 709 L233 546 L291 543 L264 -37 L169 -34 L194 493 L144 425 L68 481 ZM797 448 L817 571 L399 560 L358 631 L443 771 L524 723 L483 656 L871 666 L918 613 L891 433 L797 448 ZM446 36 L602 98 L564 483 L658 491 L699 71 L669 23 L481 -52 L446 36 ZM291 146 L456 380 L532 326 L367 93 L291 146 ZM717 298 L797 348 L932 130 L851 80 L717 298 Z" /><glyph glyph-name="uni52B2" unicode="&#x52b2;" d="M762 -33 L710 45 L807 107 L839 532 L745 548 L602 -55 L509 -33 L651 564 L563 580 L579 672 L673 656 L702 775 L793 753 L766 640 L897 618 L937 568 L899 77 L878 41 L762 -33 ZM385 530 L549 445 L505 361 L301 468 L120 333 L64 408 L347 620 L125 662 L143 755 L470 692 L489 608 L385 530 ZM355 255 L360 143 L478 191 L514 103 L363 43 L168 -35 L133 51 L267 105 L260 244 L162 233 L152 327 L452 361 L462 267 L355 255 Z" /><glyph glyph-name="uni54E6" unicode="&#x54e6;" d="M578 144 L724 240 L681 460 L546 443 L549 352 L596 368 L626 279 L552 254 L556 149 L549 123 L443 -53 L361 -5 L461 160 L459 222 L401 203 L370 292 L455 321 L452 432 L379 423 L368 517 L449 527 L445 626 L403 613 L375 703 L595 769 L623 679 L539 654 L543 538 L662 553 L628 728 L720 745 L756 564 L901 582 L913 489 L774 471 L809 296 L860 329 L911 250 L829 196 L874 -27 L781 -46 L744 140 L630 65 L578 144 ZM101 79 L85 613 L133 662 L300 662 L348 613 L331 88 L286 42 L151 33 L101 79 ZM194 130 L238 133 L253 568 L181 567 L194 130 ZM755 717 L831 772 L915 655 L839 600 L755 717 Z" /><glyph glyph-name="uni575A" unicode="&#x575a;" d="M541 136 L547 40 L909 38 L908 -57 L85 -51 L86 43 L452 41 L447 134 L203 131 L201 226 L441 229 L434 343 L528 349 L535 230 L786 234 L789 140 L541 136 ZM742 468 L899 359 L845 281 L673 400 L586 313 L520 379 L596 454 L514 511 L568 589 L664 522 L784 641 L533 685 L549 778 L889 719 L915 640 L742 468 ZM353 299 L258 305 L288 776 L383 770 L353 299 ZM196 346 L101 346 L101 670 L196 670 L196 346 Z" /><glyph glyph-name="uni5929" unicode="&#x5929;" d="M110 29 L360 325 L106 325 L106 419 L428 419 L451 637 L181 624 L176 717 L806 750 L811 656 L545 642 L524 419 L895 419 L895 325 L485 325 L181 -31 L110 29 ZM537 224 L604 292 L854 54 L789 -15 L537 224 Z" /><glyph glyph-name="uni597D" unicode="&#x597d;" d="M453 298 L633 328 L619 420 L633 463 L770 594 L505 635 L520 729 L880 673 L907 591 L717 411 L727 344 L885 371 L902 278 L742 250 L779 21 L729 -32 L495 -16 L503 76 L675 65 L648 234 L469 204 L453 298 ZM147 14 L225 157 L114 288 L109 341 L205 520 L94 536 L108 630 L253 609 L330 751 L414 706 L354 595 L488 576 L474 483 L306 506 L208 325 L274 246 L368 416 L452 371 L340 169 L433 60 L360 -1 L291 80 L230 -30 L147 14 Z" /><glyph glyph-name="uni5DE5" unicode="&#x5de5;" d="M575 609 L527 121 L890 154 L899 60 L110 -13 L101 82 L430 112 L480 617 L199 639 L206 733 L794 687 L786 593 L575 609 Z" /><glyph glyph-name="uni5FC3" unicode="&#x5fc3;" d="M671 589 L755 632 L930 287 L846 245 L671 589 ZM385 671 L468 716 L621 430 L539 385 L385 671 ZM70 191 L193 520 L281 487 L159 159 L70 191 ZM330 22 L285 75 L331 474 L425 462 L385 114 L743 97 L738 4 L330 22 Z" /><glyph glyph-name="uni5FD8" unicode="&#x5fd8;" d="M110 631 L419 645 L371 729 L453 775 L526 650 L886 667 L890 572 L353 547 L385 405 L785 459 L797 365 L355 306 L302 342 L259 542 L115 536 L110 631 ZM368 -41 L245 115 L166 -5 L87 47 L201 221 L277 225 L422 44 L722 145 L752 56 L421 -56 L368 -41 ZM718 225 L800 272 L913 80 L832 32 L718 225 ZM413 231 L477 301 L603 187 L540 117 L413 231 Z" /><glyph glyph-name="uni60C5" unicode="&#x60c5;" d="M369 125 L420 125 L411 304 L456 353 L832 373 L881 328 L894 25 L867 -20 L763 -67 L723 19 L799 53 L794 148 L514 143 L515 126 L747 129 L748 34 L520 32 L524 -44 L429 -49 L425 31 L369 31 L369 125 ZM416 734 L588 739 L588 786 L683 788 L683 742 L902 750 L906 655 L684 648 L685 604 L857 595 L853 501 L685 510 L685 484 L928 493 L932 399 L383 378 L381 473 L591 480 L591 516 L463 523 L468 616 L590 609 L589 645 L418 640 L416 734 ZM68 268 L153 559 L210 542 L208 770 L302 771 L303 617 L404 526 L342 456 L304 489 L309 -47 L216 -47 L211 424 L158 241 L68 268 ZM508 261 L509 238 L790 242 L789 276 L508 261 Z" /><glyph glyph-name="uni6211" unicode="&#x6211;" d="M539 182 L683 253 L635 434 L357 398 L364 302 L462 340 L495 252 L371 204 L378 115 L362 75 L200 -60 L139 12 L283 132 L280 169 L143 116 L108 203 L272 266 L263 386 L97 365 L85 458 L256 480 L247 595 L125 536 L84 620 L407 778 L448 693 L339 640 L350 492 L611 526 L562 710 L653 733 L705 538 L803 551 L748 665 L833 706 L917 533 L880 466 L729 446 L769 296 L840 331 L882 246 L794 203 L854 -22 L763 -47 L708 160 L580 98 L539 182 Z" /><glyph glyph-name="uni6301" unicode="&#x6301;" d="M122 557 L213 577 L202 691 L296 700 L306 598 L356 609 L376 516 L315 503 L326 389 L376 412 L416 327 L412 325 L770 351 L773 404 L867 397 L864 358 L894 360 L901 265 L859 262 L843 -18 L792 -61 L562 -41 L571 52 L752 36 L764 255 L588 243 L644 125 L558 85 L488 236 L416 231 L409 323 L335 289 L361 22 L313 -29 L184 -29 L184 66 L262 66 L244 247 L123 191 L83 277 L235 347 L222 483 L142 466 L122 557 ZM472 669 L665 692 L666 780 L761 779 L760 704 L863 717 L874 624 L758 609 L757 518 L911 529 L917 434 L457 404 L451 497 L662 511 L663 597 L483 575 L472 669 Z" /><glyph glyph-name="uni6709" unicode="&#x6709;" d="M657 17 L771 50 L756 404 L372 374 L368 324 L714 335 L716 240 L361 229 L358 176 L672 170 L671 75 L351 82 L342 -55 L247 -48 L256 84 L181 86 L184 180 L263 178 L281 421 L325 465 L797 502 L849 457 L866 16 L832 -31 L682 -71 L657 17 ZM116 667 L323 677 L414 790 L487 731 L448 683 L880 704 L885 609 L369 585 L190 362 L117 422 L244 579 L120 574 L116 667 Z" /><glyph glyph-name="uni6765" unicode="&#x6765;" d="M691 360 L913 352 L910 257 L552 272 L561 -58 L466 -60 L457 276 L405 278 L406 277 L170 -45 L93 10 L293 282 L87 291 L91 385 L309 376 L225 501 L302 555 L413 390 L388 373 L455 370 L449 597 L168 585 L163 678 L447 691 L445 776 L538 778 L540 695 L850 710 L853 616 L764 612 L836 558 L691 360 ZM549 366 L671 361 L608 407 L757 611 L543 602 L549 366 ZM817 -35 L613 188 L682 251 L887 28 L817 -35 Z" /><glyph glyph-name="uni677E" unicode="&#x677e;" d="M312 522 L309 290 L432 196 L375 121 L307 172 L305 -39 L211 -38 L215 324 L132 161 L47 205 L214 526 L101 532 L106 626 L219 620 L221 741 L315 740 L313 616 L411 611 L407 517 L312 522 ZM421 38 L585 491 L673 460 L541 92 L733 146 L676 258 L760 302 L913 2 L830 -40 L777 61 L478 -23 L421 38 ZM685 717 L768 758 L953 388 L868 346 L685 717 ZM367 403 L555 730 L636 683 L448 357 L367 403 Z" /><glyph glyph-name="uni6BCF" unicode="&#x6bcf;" d="M807 -68 L713 -66 L714 4 L223 -40 L172 15 L207 240 L109 240 L109 335 L222 335 L250 517 L297 557 L772 564 L820 517 L816 338 L890 339 L890 244 L813 243 L810 108 L883 114 L890 20 L809 13 L807 -68 ZM870 607 L247 619 L209 544 L125 585 L227 788 L310 745 L293 712 L873 700 L870 607 ZM495 210 L559 85 L717 99 L719 243 L302 241 L274 60 L458 76 L412 168 L495 210 ZM338 463 L317 336 L501 337 L459 395 L535 450 L616 337 L721 338 L724 469 L338 463 Z" /><glyph glyph-name="uni6D3B" unicode="&#x6d3b;" d="M385 693 L841 765 L856 672 L679 644 L671 499 L907 515 L914 421 L665 405 L658 287 L830 281 L875 226 L841 27 L800 -12 L459 -45 L406 -4 L382 243 L431 295 L564 290 L570 399 L345 385 L339 478 L576 493 L583 629 L400 601 L385 693 ZM101 -4 L221 287 L86 436 L155 500 L311 330 L320 280 L187 -40 L101 -4 ZM496 52 L755 78 L774 188 L481 198 L496 52 ZM105 686 L176 748 L326 578 L256 516 L105 686 Z" /><glyph glyph-name="uni751F" unicode="&#x751f;" d="M89 443 L237 748 L322 707 L275 611 L503 625 L515 753 L609 745 L599 631 L879 648 L884 555 L590 536 L574 355 L849 347 L845 252 L565 260 L549 79 L907 97 L912 2 L110 -35 L107 58 L453 75 L470 263 L233 270 L235 365 L479 358 L494 530 L227 513 L173 402 L89 443 Z" /><glyph glyph-name="uni7545" unicode="&#x7545;" d="M736 -46 L707 42 L787 69 L827 389 L814 389 L658 -43 L569 -11 L715 394 L678 396 L468 -46 L383 -8 L577 402 L487 407 L462 492 L669 650 L483 672 L496 766 L796 729 L818 645 L621 495 L883 480 L927 427 L877 27 L844 -13 L736 -46 ZM296 139 L288 -29 L194 -25 L201 134 L123 130 L73 177 L81 582 L128 629 L225 628 L231 755 L324 750 L318 627 L407 627 L453 576 L422 186 L377 144 L296 139 ZM168 226 L206 228 L211 340 L170 346 L168 226 ZM314 534 L309 421 L346 416 L356 534 L314 534 ZM172 440 L216 434 L220 534 L174 534 L172 440 ZM331 235 L338 323 L305 328 L300 233 L331 235 Z" /><glyph glyph-name="uni75DB" unicode="&#x75db;" d="M374 243 L396 245 L384 338 L427 392 L481 395 L511 480 L605 448 L652 488 L424 488 L424 582 L785 583 L815 499 L704 408 L860 417 L910 368 L894 24 L876 -11 L790 -76 L734 -1 L801 50 L814 320 L667 311 L667 278 L767 290 L779 197 L668 183 L669 129 L754 139 L764 45 L670 35 L672 -72 L577 -73 L575 24 L522 19 L534 -66 L441 -78 L409 152 L385 149 L374 243 ZM91 217 L255 334 L261 325 L274 644 L319 689 L511 696 L475 725 L535 798 L644 710 L636 700 L890 710 L894 615 L366 597 L340 -63 L246 -60 L257 219 L146 139 L91 217 ZM110 570 L201 592 L246 399 L155 378 L110 570 ZM509 111 L574 119 L574 172 L502 163 L509 111 ZM490 256 L572 266 L572 305 L484 300 L490 256 Z" /><glyph glyph-name="uni7F8E" unicode="&#x7f8e;" d="M515 256 L555 204 L500 163 L899 174 L902 79 L772 75 L887 -7 L832 -82 L618 71 L367 64 L157 -92 L99 -19 L204 60 L132 58 L129 153 L336 158 L464 255 L129 245 L127 339 L487 350 L476 428 L154 426 L153 521 L463 523 L456 573 L105 569 L104 663 L238 665 L200 728 L280 776 L346 666 L626 670 L739 813 L813 754 L748 672 L878 674 L879 579 L551 574 L558 523 L845 525 L845 431 L571 429 L582 353 L897 363 L900 268 L515 256 Z" /><glyph glyph-name="uni8170" unicode="&#x8170;" d="M237 17 L325 85 L312 437 L199 427 L201 302 L277 312 L290 220 L203 208 L205 129 L205 119 L170 -43 L77 -24 L111 132 L109 195 L89 192 L76 286 L107 290 L99 662 L142 711 L346 729 L397 684 L420 64 L401 25 L296 -56 L237 17 ZM444 735 L862 775 L871 681 L789 673 L789 624 L876 627 L924 575 L905 410 L856 367 L471 384 L427 426 L412 562 L457 615 L555 618 L555 650 L454 641 L444 735 ZM464 29 L568 89 L491 130 L471 194 L484 218 L436 219 L437 312 L535 311 L570 374 L652 329 L641 309 L870 307 L869 212 L591 216 L577 191 L665 144 L775 207 L822 126 L762 92 L871 35 L827 -48 L666 37 L510 -51 L464 29 ZM195 621 L197 521 L308 530 L305 631 L195 621 ZM649 470 L695 468 L695 527 L649 526 L649 470 ZM789 530 L789 465 L816 464 L824 531 L789 530 ZM555 474 L555 523 L511 522 L516 476 L555 474 ZM649 620 L695 622 L695 664 L649 659 L649 620 Z" /><glyph glyph-name="uni817F" unicode="&#x817f;" d="M593 159 L593 697 L634 744 L873 772 L925 725 L915 386 L865 341 L844 343 L857 304 L879 314 L916 227 L889 215 L923 119 L834 87 L802 177 L659 115 L593 159 ZM231 420 L227 318 L280 326 L294 234 L224 223 L216 -5 L123 -1 L130 208 L89 202 L75 296 L133 304 L145 679 L196 724 L373 709 L416 660 L401 70 L386 36 L308 -38 L243 31 L308 92 L320 619 L238 625 L234 515 L289 515 L289 420 L231 420 ZM379 22 L451 132 L471 491 L420 509 L449 597 L535 570 L568 522 L545 117 L910 24 L886 -66 L498 32 L458 -29 L379 22 ZM429 740 L511 786 L578 667 L495 622 L429 740 ZM688 594 L827 604 L829 672 L688 655 L688 594 ZM823 439 L825 510 L688 500 L688 450 L823 439 ZM688 230 L771 266 L741 351 L688 356 L688 230 Z" /><glyph glyph-name="uni8212" unicode="&#x8212;" d="M179 491 L474 522 L484 428 L362 415 L362 368 L489 371 L491 277 L362 273 L362 251 L447 259 L499 208 L479 2 L435 -41 L222 -54 L174 -17 L137 181 L180 236 L269 243 L269 270 L142 267 L140 362 L269 365 L269 405 L189 397 L179 491 ZM836 266 L846 318 L779 321 L779 1 L719 -44 L547 6 L575 97 L685 63 L685 326 L524 334 L527 429 L672 421 L574 533 L645 596 L721 508 L810 621 L544 639 L550 733 L904 708 L937 633 L774 421 L779 421 L779 416 L905 409 L949 353 L930 249 L836 266 ZM51 523 L330 773 L394 703 L371 683 L550 598 L510 513 L295 614 L114 453 L51 523 ZM259 42 L389 51 L399 161 L240 147 L259 42 Z" /><glyph glyph-name="uni8981" unicode="&#x8981;" d="M672 667 L667 620 L831 619 L875 555 L823 419 L780 389 L409 372 L387 323 L891 336 L894 241 L344 227 L329 193 L501 153 L739 231 L768 141 L678 112 L875 66 L854 -26 L504 55 L190 -47 L161 41 L328 96 L251 114 L219 179 L239 224 L103 221 L100 316 L282 320 L303 367 L204 363 L155 405 L135 571 L181 624 L324 623 L323 671 L124 674 L125 768 L900 758 L899 664 L672 667 ZM420 466 L557 472 L562 526 L420 527 L420 466 ZM419 622 L572 621 L577 668 L418 670 L419 622 ZM243 459 L327 462 L326 528 L235 529 L243 459 ZM657 526 L652 477 L745 481 L763 525 L657 526 Z" /><glyph glyph-name="uni8BA9" unicode="&#x8ba9;" d="M639 435 L654 52 L921 71 L927 -23 L358 -64 L352 31 L560 45 L531 772 L625 777 L635 530 L848 561 L862 467 L639 435 ZM136 -51 L81 8 L208 456 L72 482 L90 574 L277 538 L313 478 L193 58 L306 83 L326 -9 L136 -51 ZM273 594 L107 704 L160 783 L326 673 L273 594 Z" /><glyph glyph-name="uni8BB0" unicode="&#x8bb0;" d="M336 -65 L145 -35 L107 26 L231 417 L76 447 L94 540 L301 500 L336 440 L214 50 L351 28 L336 -65 ZM304 598 L99 698 L140 783 L345 683 L304 598 ZM480 -52 L432 -8 L392 420 L436 471 L772 491 L795 625 L402 670 L414 763 L855 713 L896 658 L859 437 L815 398 L490 380 L522 45 L794 51 L835 187 L925 160 L874 -9 L830 -43 L480 -52 Z" /><glyph glyph-name="uni8D70" unicode="&#x8d70;" d="M231 668 L452 693 L454 781 L548 780 L546 704 L768 730 L779 636 L544 609 L542 508 L893 501 L892 406 L93 423 L94 518 L448 510 L450 598 L242 574 L231 668 ZM99 4 L264 325 L348 283 L298 187 L484 139 L509 388 L603 378 L596 310 L839 305 L837 210 L586 217 L575 115 L907 29 L883 -62 L254 101 L183 -39 L99 4 Z" /><glyph glyph-name="uni8DEF" unicode="&#x8def;" d="M78 472 L77 685 L121 732 L357 748 L407 703 L420 483 L373 435 L351 434 L355 257 L401 283 L447 201 L333 137 L262 177 L256 430 L127 426 L78 472 ZM422 595 L600 798 L671 736 L648 710 L887 636 L901 553 L757 447 L922 356 L877 273 L673 386 L506 263 L450 338 L583 436 L536 462 L582 545 L667 497 L770 573 L581 633 L493 532 L422 595 ZM532 -65 L487 -20 L487 195 L530 241 L815 273 L867 225 L857 -37 L807 -80 L532 -65 ZM82 36 L120 44 L96 340 L190 347 L213 65 L433 113 L453 21 L102 -55 L82 36 ZM765 15 L771 173 L581 152 L581 25 L765 15 ZM172 522 L322 527 L316 651 L171 641 L172 522 Z" /><glyph glyph-name="uni8F7B" unicode="&#x8f7b;" d="M335 98 L338 -68 L245 -69 L242 82 L77 53 L61 146 L240 177 L237 326 L115 336 L73 394 L117 564 L62 558 L52 652 L142 661 L175 788 L266 764 L242 672 L448 694 L458 601 L216 575 L178 426 L235 421 L233 517 L328 518 L330 413 L400 407 L392 313 L331 318 L333 193 L451 213 L467 121 L335 98 ZM792 558 L947 432 L887 359 L716 498 L500 326 L441 401 L758 652 L498 667 L503 762 L887 738 L913 654 L792 558 ZM744 243 L753 46 L903 41 L900 -52 L442 -34 L446 58 L659 50 L650 239 L508 234 L505 329 L881 343 L885 249 L744 243 Z" /><glyph glyph-name="uni901B" unicode="&#x901b;" d="M102 21 L186 466 L92 472 L98 567 L246 557 L288 501 L206 60 L895 64 L896 -31 L148 -36 L102 21 ZM757 395 L746 213 L902 224 L907 129 L547 106 L542 200 L650 207 L662 400 L565 405 L570 500 L668 495 L677 632 L558 632 L558 727 L867 727 L867 632 L772 632 L763 490 L857 485 L852 390 L757 395 ZM283 372 L382 438 L364 527 L340 505 L276 575 L342 635 L325 720 L418 739 L424 708 L471 751 L535 680 L446 600 L488 394 L528 197 L492 142 L298 95 L276 187 L426 224 L403 337 L335 292 L283 372 ZM101 676 L152 756 L303 660 L252 580 L101 676 Z" /><glyph glyph-name="uni9178" unicode="&#x9178;" d="M119 707 L452 746 L463 652 L393 644 L393 610 L464 618 L517 568 L483 32 L435 -13 L187 -11 L140 31 L79 526 L120 578 L207 588 L206 622 L130 613 L119 707 ZM522 4 L624 102 L534 146 L574 231 L697 171 L749 221 L579 261 L560 343 L690 452 L752 379 L693 331 L855 292 L877 212 L788 127 L880 83 L840 -2 L715 58 L587 -64 L522 4 ZM802 589 L625 559 L687 492 L577 394 L514 464 L619 558 L562 549 L510 613 L580 783 L667 747 L630 656 L760 678 L745 709 L830 751 L900 602 L815 562 L802 589 ZM212 493 L178 489 L212 212 L401 225 L405 293 L344 309 L314 348 L313 505 L292 502 L303 272 L222 268 L212 493 ZM720 507 L789 572 L922 433 L853 368 L720 507 ZM392 82 L395 130 L223 119 L228 83 L392 82 ZM395 381 L410 377 L419 518 L394 515 L395 381 ZM287 597 L312 600 L312 634 L286 631 L287 597 Z" /><glyph glyph-name="uniFF01" unicode="&#xff01;" d="M185 234 L79 247 L145 761 L252 745 L185 234 ZM73 -34 L60 125 L166 134 L179 -26 L73 -34 Z" /><glyph glyph-name="uniFF0C" unicode="&#xff0c;" d="M500 -103 L430 -66 L503 64 L436 92 L466 167 L575 123 L595 66 L500 -103 Z" /></font>
</defs>
</svg>
